<mxfile host="app.diagrams.net" agent="Mozilla/5.0 (Windows NT 10.0; Win64; x64) AppleWebKit/537.36 (KHTML, like Gecko) Chrome/136.0.0.0 Safari/537.36 Edg/136.0.0.0" version="27.1.1">
  <diagram id="1cen6F0pKEglF9MSGJp_" name="Сторінка-1">
    <mxGraphModel dx="786" dy="552" grid="1" gridSize="10" guides="1" tooltips="1" connect="1" arrows="1" fold="1" page="1" pageScale="1" pageWidth="827" pageHeight="1169" math="0" shadow="0">
      <root>
        <mxCell id="0" />
        <mxCell id="1" parent="0" />
        <mxCell id="w7C9Iute1KxasxDb_BeU-13" value="" style="rounded=1;whiteSpace=wrap;html=1;dashed=1;" vertex="1" parent="1">
          <mxGeometry x="265" y="510" width="300" height="100" as="geometry" />
        </mxCell>
        <mxCell id="uMgJuq0zAGavcUWCigHo-29" value="&lt;ul&gt;&lt;li&gt;8 epochs&lt;/li&gt;&lt;li&gt;AdamW optimizer&lt;/li&gt;&lt;/ul&gt;" style="text;html=1;strokeColor=none;fillColor=none;align=left;verticalAlign=middle;whiteSpace=wrap;rounded=0;" parent="1" vertex="1">
          <mxGeometry x="470" y="745" width="200" height="30" as="geometry" />
        </mxCell>
        <mxCell id="uMgJuq0zAGavcUWCigHo-13" style="edgeStyle=orthogonalEdgeStyle;rounded=0;orthogonalLoop=1;jettySize=auto;html=1;exitX=0.5;exitY=1;exitDx=0;exitDy=0;entryX=0.5;entryY=0;entryDx=0;entryDy=0;" parent="1" source="uMgJuq0zAGavcUWCigHo-9" target="uMgJuq0zAGavcUWCigHo-4" edge="1">
          <mxGeometry relative="1" as="geometry" />
        </mxCell>
        <mxCell id="uMgJuq0zAGavcUWCigHo-9" value="" style="rounded=1;whiteSpace=wrap;html=1;dashed=1;" parent="1" vertex="1">
          <mxGeometry x="185" y="20" width="460" height="100" as="geometry" />
        </mxCell>
        <mxCell id="uMgJuq0zAGavcUWCigHo-11" style="edgeStyle=orthogonalEdgeStyle;rounded=0;orthogonalLoop=1;jettySize=auto;html=1;entryX=0;entryY=0.5;entryDx=0;entryDy=0;" parent="1" source="uMgJuq0zAGavcUWCigHo-1" target="uMgJuq0zAGavcUWCigHo-2" edge="1">
          <mxGeometry relative="1" as="geometry" />
        </mxCell>
        <mxCell id="uMgJuq0zAGavcUWCigHo-1" value="Dataset loading" style="rounded=1;whiteSpace=wrap;html=1;" parent="1" vertex="1">
          <mxGeometry x="205" y="50" width="120" height="60" as="geometry" />
        </mxCell>
        <mxCell id="w7C9Iute1KxasxDb_BeU-15" style="edgeStyle=orthogonalEdgeStyle;rounded=0;orthogonalLoop=1;jettySize=auto;html=1;exitX=1;exitY=0.5;exitDx=0;exitDy=0;entryX=0;entryY=0.5;entryDx=0;entryDy=0;" edge="1" parent="1" source="uMgJuq0zAGavcUWCigHo-2" target="w7C9Iute1KxasxDb_BeU-14">
          <mxGeometry relative="1" as="geometry" />
        </mxCell>
        <mxCell id="uMgJuq0zAGavcUWCigHo-2" value="Data pre-processing" style="rounded=1;whiteSpace=wrap;html=1;" parent="1" vertex="1">
          <mxGeometry x="355" y="50" width="120" height="60" as="geometry" />
        </mxCell>
        <mxCell id="uMgJuq0zAGavcUWCigHo-14" style="edgeStyle=orthogonalEdgeStyle;rounded=0;orthogonalLoop=1;jettySize=auto;html=1;exitX=0.5;exitY=1;exitDx=0;exitDy=0;entryX=0.5;entryY=0;entryDx=0;entryDy=0;" parent="1" source="uMgJuq0zAGavcUWCigHo-4" target="uMgJuq0zAGavcUWCigHo-5" edge="1">
          <mxGeometry relative="1" as="geometry" />
        </mxCell>
        <mxCell id="uMgJuq0zAGavcUWCigHo-4" value="Train/val/test data distribution" style="rounded=1;whiteSpace=wrap;html=1;" parent="1" vertex="1">
          <mxGeometry x="354" y="150" width="120" height="60" as="geometry" />
        </mxCell>
        <mxCell id="uMgJuq0zAGavcUWCigHo-17" style="edgeStyle=orthogonalEdgeStyle;rounded=0;orthogonalLoop=1;jettySize=auto;html=1;exitX=0.5;exitY=1;exitDx=0;exitDy=0;" parent="1" target="uMgJuq0zAGavcUWCigHo-16" edge="1">
          <mxGeometry relative="1" as="geometry">
            <mxPoint x="415" y="470" as="sourcePoint" />
          </mxGeometry>
        </mxCell>
        <mxCell id="w7C9Iute1KxasxDb_BeU-5" style="edgeStyle=orthogonalEdgeStyle;rounded=0;orthogonalLoop=1;jettySize=auto;html=1;exitX=0.5;exitY=1;exitDx=0;exitDy=0;entryX=0.5;entryY=0;entryDx=0;entryDy=0;" edge="1" parent="1" source="uMgJuq0zAGavcUWCigHo-5" target="w7C9Iute1KxasxDb_BeU-3">
          <mxGeometry relative="1" as="geometry" />
        </mxCell>
        <mxCell id="uMgJuq0zAGavcUWCigHo-5" value="Audio resampling" style="rounded=1;whiteSpace=wrap;html=1;" parent="1" vertex="1">
          <mxGeometry x="355" y="240" width="120" height="60" as="geometry" />
        </mxCell>
        <mxCell id="uMgJuq0zAGavcUWCigHo-20" style="edgeStyle=orthogonalEdgeStyle;rounded=0;orthogonalLoop=1;jettySize=auto;html=1;exitX=0.5;exitY=1;exitDx=0;exitDy=0;entryX=0.5;entryY=0;entryDx=0;entryDy=0;" parent="1" source="uMgJuq0zAGavcUWCigHo-7" target="uMgJuq0zAGavcUWCigHo-8" edge="1">
          <mxGeometry relative="1" as="geometry" />
        </mxCell>
        <mxCell id="uMgJuq0zAGavcUWCigHo-7" value="Loss function" style="rounded=1;whiteSpace=wrap;html=1;" parent="1" vertex="1">
          <mxGeometry x="355" y="640" width="120" height="60" as="geometry" />
        </mxCell>
        <mxCell id="uMgJuq0zAGavcUWCigHo-21" style="edgeStyle=orthogonalEdgeStyle;rounded=0;orthogonalLoop=1;jettySize=auto;html=1;exitX=0.5;exitY=1;exitDx=0;exitDy=0;" parent="1" source="uMgJuq0zAGavcUWCigHo-8" edge="1">
          <mxGeometry relative="1" as="geometry">
            <mxPoint x="415" y="820" as="targetPoint" />
          </mxGeometry>
        </mxCell>
        <mxCell id="uMgJuq0zAGavcUWCigHo-8" value="Model training" style="rounded=1;whiteSpace=wrap;html=1;" parent="1" vertex="1">
          <mxGeometry x="355" y="730" width="120" height="60" as="geometry" />
        </mxCell>
        <mxCell id="uMgJuq0zAGavcUWCigHo-10" value="Data preparation" style="text;html=1;align=center;verticalAlign=middle;whiteSpace=wrap;rounded=0;" parent="1" vertex="1">
          <mxGeometry x="349" y="20" width="140" height="30" as="geometry" />
        </mxCell>
        <mxCell id="uMgJuq0zAGavcUWCigHo-18" style="edgeStyle=orthogonalEdgeStyle;rounded=0;orthogonalLoop=1;jettySize=auto;html=1;exitX=0.5;exitY=1;exitDx=0;exitDy=0;entryX=0.5;entryY=0;entryDx=0;entryDy=0;" parent="1" target="uMgJuq0zAGavcUWCigHo-7" edge="1">
          <mxGeometry relative="1" as="geometry">
            <mxPoint x="415" y="610" as="sourcePoint" />
          </mxGeometry>
        </mxCell>
        <mxCell id="uMgJuq0zAGavcUWCigHo-16" value="Model architecture" style="text;html=1;align=center;verticalAlign=middle;whiteSpace=wrap;rounded=0;" parent="1" vertex="1">
          <mxGeometry x="345" y="510" width="140" height="30" as="geometry" />
        </mxCell>
        <mxCell id="uMgJuq0zAGavcUWCigHo-19" value="Model evaluation" style="rounded=1;whiteSpace=wrap;html=1;" parent="1" vertex="1">
          <mxGeometry x="355" y="820" width="120" height="60" as="geometry" />
        </mxCell>
        <mxCell id="uMgJuq0zAGavcUWCigHo-22" value="Pretrained transformer (HuBERT) model initialization" style="rounded=1;whiteSpace=wrap;html=1;" parent="1" vertex="1">
          <mxGeometry x="280" y="540" width="120" height="60" as="geometry" />
        </mxCell>
        <mxCell id="uMgJuq0zAGavcUWCigHo-24" value="Data loaders setup" style="rounded=1;whiteSpace=wrap;html=1;" parent="1" vertex="1">
          <mxGeometry x="430" y="540" width="120" height="60" as="geometry" />
        </mxCell>
        <mxCell id="uMgJuq0zAGavcUWCigHo-27" value="" style="html=1;shape=mxgraph.flowchart.annotation_2;align=left;labelPosition=right;" parent="1" vertex="1">
          <mxGeometry x="480" y="740" width="20" height="40" as="geometry" />
        </mxCell>
        <mxCell id="uMgJuq0zAGavcUWCigHo-34" value="&lt;ul&gt;&lt;li&gt;Weighted cross-entropy loss&lt;/li&gt;&lt;/ul&gt;" style="text;html=1;strokeColor=none;fillColor=none;align=left;verticalAlign=middle;whiteSpace=wrap;rounded=0;" parent="1" vertex="1">
          <mxGeometry x="470" y="655" width="200" height="30" as="geometry" />
        </mxCell>
        <mxCell id="uMgJuq0zAGavcUWCigHo-35" value="" style="html=1;shape=mxgraph.flowchart.annotation_2;align=left;labelPosition=right;" parent="1" vertex="1">
          <mxGeometry x="480" y="650" width="20" height="40" as="geometry" />
        </mxCell>
        <mxCell id="uMgJuq0zAGavcUWCigHo-38" value="&lt;ul&gt;&lt;li&gt;16 kHz&lt;/li&gt;&lt;li&gt;.wav format&lt;/li&gt;&lt;/ul&gt;" style="text;html=1;strokeColor=none;fillColor=none;align=left;verticalAlign=middle;whiteSpace=wrap;rounded=0;" parent="1" vertex="1">
          <mxGeometry x="470" y="255" width="170" height="30" as="geometry" />
        </mxCell>
        <mxCell id="uMgJuq0zAGavcUWCigHo-39" value="" style="html=1;shape=mxgraph.flowchart.annotation_2;align=left;labelPosition=right;" parent="1" vertex="1">
          <mxGeometry x="480" y="250" width="20" height="40" as="geometry" />
        </mxCell>
        <mxCell id="w7C9Iute1KxasxDb_BeU-8" style="edgeStyle=orthogonalEdgeStyle;rounded=0;orthogonalLoop=1;jettySize=auto;html=1;exitX=0.5;exitY=1;exitDx=0;exitDy=0;entryX=0.5;entryY=0;entryDx=0;entryDy=0;" edge="1" parent="1" source="w7C9Iute1KxasxDb_BeU-3" target="w7C9Iute1KxasxDb_BeU-4">
          <mxGeometry relative="1" as="geometry" />
        </mxCell>
        <mxCell id="w7C9Iute1KxasxDb_BeU-3" value="Feature extraction" style="rounded=1;whiteSpace=wrap;html=1;" vertex="1" parent="1">
          <mxGeometry x="355" y="330" width="120" height="60" as="geometry" />
        </mxCell>
        <mxCell id="w7C9Iute1KxasxDb_BeU-4" value="Batch processing &amp;amp; saving" style="rounded=1;whiteSpace=wrap;html=1;" vertex="1" parent="1">
          <mxGeometry x="355" y="420" width="120" height="60" as="geometry" />
        </mxCell>
        <mxCell id="w7C9Iute1KxasxDb_BeU-6" value="&lt;ul&gt;&lt;li&gt;Wav2Vec2FeatureExtractor&lt;/li&gt;&lt;/ul&gt;" style="text;html=1;strokeColor=none;fillColor=none;align=left;verticalAlign=middle;whiteSpace=wrap;rounded=0;" vertex="1" parent="1">
          <mxGeometry x="470" y="345" width="190" height="30" as="geometry" />
        </mxCell>
        <mxCell id="w7C9Iute1KxasxDb_BeU-7" value="" style="html=1;shape=mxgraph.flowchart.annotation_2;align=left;labelPosition=right;" vertex="1" parent="1">
          <mxGeometry x="480" y="340" width="20" height="40" as="geometry" />
        </mxCell>
        <mxCell id="w7C9Iute1KxasxDb_BeU-9" style="edgeStyle=orthogonalEdgeStyle;rounded=0;orthogonalLoop=1;jettySize=auto;html=1;entryX=0;entryY=0.5;entryDx=0;entryDy=0;" edge="1" parent="1">
          <mxGeometry relative="1" as="geometry">
            <mxPoint x="400" y="570" as="sourcePoint" />
            <mxPoint x="430" y="570" as="targetPoint" />
          </mxGeometry>
        </mxCell>
        <mxCell id="w7C9Iute1KxasxDb_BeU-14" value="Data aggregation *" style="rounded=1;whiteSpace=wrap;html=1;" vertex="1" parent="1">
          <mxGeometry x="505" y="50" width="120" height="60" as="geometry" />
        </mxCell>
        <mxCell id="w7C9Iute1KxasxDb_BeU-16" value="&lt;ul&gt;&lt;li&gt;256 samples per batch&lt;/li&gt;&lt;/ul&gt;" style="text;html=1;strokeColor=none;fillColor=none;align=left;verticalAlign=middle;whiteSpace=wrap;rounded=0;" vertex="1" parent="1">
          <mxGeometry x="470" y="435" width="190" height="30" as="geometry" />
        </mxCell>
        <mxCell id="w7C9Iute1KxasxDb_BeU-17" value="" style="html=1;shape=mxgraph.flowchart.annotation_2;align=left;labelPosition=right;" vertex="1" parent="1">
          <mxGeometry x="480" y="430" width="20" height="40" as="geometry" />
        </mxCell>
      </root>
    </mxGraphModel>
  </diagram>
</mxfile>
